# xmcd CD database file
#
# Track frame offsets:
#	150
#	11520
#	26347
#	42220
#	57807
#	70265
#	75962
#	84445
#	93617
#	106032
#	123410
#	132317
#	136115
#	148210
#	160622
#	169382
#	179265
#	194360
#	202840
#	214875
#	228920
#	237675
#
# Disc length: 3382 seconds
#
# Revision: 1
# Processed by: cddbd v1.5.2PL0 Copyright (c) Steve Scherf et al.
# Submitted via: CDex 1.70beta3
#
DISCID=250d3416
DTITLE=B-DASH - B-DASH BEST
DYEAR=2005
DGENRE=ロック
TTITLE0=炎
TTITLE1=ちょ
TTITLE2=平和島
TTITLE3=Sector
TTITLE4=ENDLESS CIRCLE
TTITLE5=人造ライダーイマーン
TTITLE6=Roof Top
TTITLE7=Water Pow
TTITLE8=やまびこ
TTITLE9=野球
TTITLE10=メロディック本門寺
TTITLE11=情熱の若竹公園
TTITLE12=目覚めよニッポン！
TTITLE13=Go My Friends
TTITLE14=KIDS
TTITLE15=ホホイ
TTITLE16=愛するPow
TTITLE17=烈風さん
TTITLE18=MI・SO・SHI・RU
TTITLE19=情熱たましい
TTITLE20=Race Problem
TTITLE21=フーファイ
EXTD=YEAR: 2005
EXTT0=
EXTT1=
EXTT2=
EXTT3=
EXTT4=
EXTT5=
EXTT6=
EXTT7=
EXTT8=
EXTT9=
EXTT10=
EXTT11=
EXTT12=
EXTT13=
EXTT14=
EXTT15=
EXTT16=
EXTT17=
EXTT18=
EXTT19=
EXTT20=
EXTT21=
PLAYORDER=
